<svg width="26" height="26" viewBox="0 0 26 26" fill="none" xmlns="http://www.w3.org/2000/svg">
<path d="M0 6.86936C0.243702 5.71178 0.426481 4.49326 1.09666 3.45753C2.55888 1.0205 4.87405 0.10662 7.55478 0.0456942C11.2103 -0.0152314 14.8049 -0.0152314 18.4605 0.0456942C20.8975 0.10662 23.0908 0.898653 24.614 3.03105C25.5888 4.43234 25.9543 5.95548 25.9543 7.60047C26.0152 11.0732 26.0152 14.546 25.9543 18.0797C25.8934 20.8823 24.9186 23.2584 22.2988 24.7206C21.0803 25.3907 19.7399 25.6954 18.3995 25.6954C14.8049 25.7563 11.2103 25.7563 7.67663 25.6954C4.9959 25.6345 2.68073 24.7206 1.15759 22.2835C0.48741 21.2478 0.304632 20.0293 0.0609293 18.8717C3.7177e-06 14.8506 0 10.8905 0 6.86936ZM12.9772 2.48272C11.2103 2.48272 9.44347 2.42179 7.6157 2.48272C4.81312 2.54364 3.10721 3.82308 2.6198 6.26011C2.49795 6.74751 2.43702 7.29584 2.43702 7.78325C2.43702 11.1342 2.3761 14.546 2.43702 17.8969C2.49795 21.2478 4.20387 23.0147 7.43292 23.1365C11.0885 23.2584 14.744 23.2584 18.3995 23.1365C21.0803 23.0756 22.6643 21.7352 23.2127 19.42C23.3345 18.9936 23.3954 18.5671 23.3954 18.1406C23.3954 14.3023 23.6391 10.464 23.2736 6.62566C23.0908 4.37141 21.5677 2.84827 19.3134 2.54364C17.2419 2.36087 15.1096 2.54364 12.9772 2.48272Z" fill="white"/>
<path d="M19.6794 12.898C19.6794 16.4926 16.6941 19.478 12.9776 19.5389C9.26113 19.5998 6.21484 16.5536 6.21484 12.8371C6.21484 9.18157 9.32205 6.13529 12.9776 6.19621C16.755 6.25714 19.6794 9.24249 19.6794 12.898ZM17.1815 12.8371C17.1815 10.5219 15.2928 8.63324 12.9776 8.63324C10.6624 8.63324 8.7128 10.5219 8.7128 12.8371C8.7128 15.1523 10.6015 17.041 12.9167 17.041C15.2928 17.041 17.1815 15.1523 17.1815 12.8371Z" fill="white"/>
<path d="M19.8618 4.4375C20.7757 4.4375 21.5068 5.16861 21.5068 6.02157C21.5068 6.87453 20.7757 7.60563 19.9227 7.60563C19.0088 7.60563 18.2777 6.93545 18.2168 6.02157C18.2168 5.16861 18.9479 4.4375 19.8618 4.4375Z" fill="white"/>
</svg>
