<svg width="21" height="21" viewBox="0 0 21 21" fill="none" xmlns="http://www.w3.org/2000/svg">
<path d="M4.53053 2.26526C4.53053 3.51712 3.75557 4.53053 2.26526 4.53053C0.89418 4.53053 0 3.51712 0 2.38449C0 1.13263 0.89418 0 2.26526 0C3.63634 0 4.53053 1.01341 4.53053 2.26526Z" fill="white"/>
<path d="M4.53053 5.66406H0V20.3883H4.53053V5.66406Z" fill="white"/>
<path d="M15.3792 5.89844C12.9947 5.89844 11.6236 7.26952 11.0871 8.1637H10.9679L10.7294 6.25611H6.67578C6.67578 7.50797 6.79501 8.99827 6.79501 10.6674V20.3842H11.3255V12.3366C11.3255 11.8597 11.3255 11.5616 11.4448 11.2039C11.8024 10.429 12.3389 9.41556 13.5908 9.41556C15.2003 9.41556 15.8561 10.7866 15.8561 12.575V20.3842H20.3866V12.0385C20.3866 7.80603 18.1809 5.89844 15.3792 5.89844Z" fill="white"/>
</svg>
