<svg width="20" height="24" viewBox="0 0 20 24" fill="none" xmlns="http://www.w3.org/2000/svg">
<path d="M19.3555 9.98282C19.3555 16.9634 10.3555 22.9467 10.3555 22.9467C10.3555 22.9467 1.35547 16.9634 1.35547 9.98282C1.35547 7.6025 2.30368 5.31967 3.99151 3.63653C5.67933 1.95339 7.96852 1.00781 10.3555 1.00781C12.7424 1.00781 15.0316 1.95339 16.7194 3.63653C18.4073 5.31967 19.3555 7.6025 19.3555 9.98282Z" stroke="white" stroke-linecap="round" stroke-linejoin="round"/>
<path d="M10.3555 12.9755C12.0123 12.9755 13.3555 11.6361 13.3555 9.98386C13.3555 8.3316 12.0123 6.99219 10.3555 6.99219C8.69861 6.99219 7.35547 8.3316 7.35547 9.98386C7.35547 11.6361 8.69861 12.9755 10.3555 12.9755Z" stroke="white" stroke-linecap="round" stroke-linejoin="round"/>
</svg>
