<svg width="22" height="22" viewBox="0 0 22 22" fill="none" xmlns="http://www.w3.org/2000/svg">
<g opacity="0.8">
<path d="M21.2436 16.1443V19.136C21.2447 19.4137 21.1877 19.6886 21.0761 19.943C20.9645 20.1975 20.8009 20.4259 20.5957 20.6137C20.3904 20.8015 20.1482 20.9444 19.8843 21.0334C19.6205 21.1223 19.341 21.1554 19.0636 21.1304C15.9864 20.797 13.0306 19.7484 10.4336 18.0689C8.01741 16.5379 5.96892 14.495 4.43359 12.0856C2.74356 9.48404 1.69183 6.52208 1.36359 3.43967C1.3386 3.1639 1.37146 2.88597 1.46009 2.62356C1.54871 2.36116 1.69116 2.12003 1.87835 1.91553C2.06555 1.71103 2.29339 1.54765 2.54738 1.43577C2.80136 1.32389 3.07593 1.26598 3.35359 1.26572H6.35359C6.83889 1.26096 7.30938 1.43234 7.67735 1.74791C8.04532 2.06349 8.28566 2.50173 8.35359 2.98094C8.48021 3.93834 8.71504 4.87839 9.05359 5.78314C9.18813 6.14007 9.21725 6.52798 9.13749 6.90091C9.05774 7.27383 8.87245 7.61615 8.60359 7.88728L7.33359 9.15375C8.75714 11.6503 10.83 13.7175 13.3336 15.1371L14.6036 13.8706C14.8755 13.6025 15.2187 13.4177 15.5927 13.3382C15.9667 13.2587 16.3557 13.2877 16.7136 13.4219C17.6209 13.7595 18.5635 13.9936 19.5236 14.1199C20.0094 14.1883 20.453 14.4323 20.7701 14.8055C21.0873 15.1788 21.2558 15.6552 21.2436 16.1443Z" stroke="white" stroke-linecap="round" stroke-linejoin="round"/>
</g>
</svg>
