<svg width="25" height="21" viewBox="0 0 25 21" fill="none" xmlns="http://www.w3.org/2000/svg">
<path d="M0 17.9164C2.73261 18.154 5.10879 17.5006 7.30675 15.956C6.83152 15.8372 6.41569 15.7778 6.05926 15.659C4.57415 15.1838 3.56427 14.2333 2.91082 12.8076C2.73261 12.3918 2.73261 12.3324 3.20784 12.3324C3.68308 12.3324 4.15831 12.3918 4.75236 12.2136C3.86129 11.9759 3.14844 11.5601 2.55439 11.0255C1.60392 10.1344 1.00988 9.00572 0.950472 7.69882C0.891067 7.16418 0.950472 7.10478 1.42571 7.3424C1.90094 7.52061 2.37618 7.69882 2.97022 7.69882C2.6138 7.28299 2.19797 6.98597 1.96035 6.57014C0.831663 4.96622 0.653449 3.24349 1.42571 1.46135C1.60392 0.986115 1.66333 0.92671 2.01975 1.34254C3.74248 3.24349 5.76224 4.66919 8.19782 5.50086C9.2671 5.85728 10.3364 6.0949 11.4651 6.21371C12.0591 6.27312 12.1185 6.21371 11.9997 5.61967C11.7621 3.59991 12.8908 1.52075 14.7323 0.570283C16.6333 -0.380189 19.0094 -0.142571 20.4946 1.28314C20.7916 1.58016 21.0886 1.58016 21.445 1.52076C22.2173 1.28314 22.9895 1.04552 23.7024 0.629688C23.8212 0.570283 23.94 0.451474 24.1182 0.510879C23.7618 1.58016 23.1083 2.41182 22.2173 3.12468C23.0489 3.00587 23.8806 2.76825 24.7123 2.47123C24.7123 2.76825 24.5341 2.88706 24.4747 3.06527C23.94 3.71872 23.4054 4.31277 22.7519 4.788C22.4549 5.02562 22.3361 5.26324 22.3361 5.67907C22.3955 9.06513 21.3262 12.0948 19.3065 14.768C16.9303 17.9758 13.663 19.7579 9.74234 20.2332C6.47509 20.649 3.38606 19.9956 0.53464 18.3916C0.415831 18.3322 0.356427 18.2728 0.237618 18.2134C0.118809 18.0946 0.118809 18.0352 0 17.9164Z" fill="white"/>
</svg>
